<svg width="20" height="21" viewBox="0 0 20 21" fill="none" xmlns="http://www.w3.org/2000/svg">
<path d="M11.5 5H17.7056C18.1342 5 18.3485 5 18.4776 5.09027C18.5903 5.1691 18.6655 5.29086 18.6856 5.42692C18.7086 5.58273 18.6128 5.77442 18.4211 6.15777L17.1688 8.66232C17.1068 8.78641 17.0758 8.84845 17.0626 8.91367C17.051 8.97145 17.0496 9.03083 17.0586 9.08908C17.0688 9.15483 17.097 9.21822 17.1533 9.345L18.5 12.3751C18.6667 12.75 18.75 12.9374 18.7227 13.0888C18.6988 13.221 18.6227 13.3381 18.5116 13.4136C18.3844 13.5 18.1793 13.5 17.769 13.5H10.1C9.53995 13.5 9.25992 13.5 9.04601 13.391C8.85785 13.2951 8.70487 13.1422 8.60899 12.954C8.5 12.7401 8.5 12.4601 8.5 11.9V9.5M1 19.5L1 2M1 9.5H9.9C10.4601 9.5 10.7401 9.5 10.954 9.39101C11.1422 9.29513 11.2951 9.14215 11.391 8.95399C11.5 8.74008 11.5 8.46005 11.5 7.9V2.6C11.5 2.03995 11.5 1.75992 11.391 1.54601C11.2951 1.35785 11.1422 1.20487 10.954 1.10899C10.7401 1 10.4601 1 9.9 1L2.6 1C2.03995 1 1.75992 1 1.54601 1.10899C1.35785 1.20487 1.20487 1.35785 1.10899 1.54601C1 1.75992 1 2.03995 1 2.6V9.5Z" stroke="#EDEDED" stroke-width="2" stroke-linecap="round" stroke-linejoin="round"/>
</svg>
