<svg width="150" height="39" viewBox="0 0 150 39" fill="none" xmlns="http://www.w3.org/2000/svg">
<path opacity="0.75" d="M17.5358 10.3643L26.3095 24.6118L35.0716 38.8593H17.5358H0L8.77369 24.6118L17.5358 10.3643Z" fill="#13487D"/>
<path opacity="0.75" d="M30.8795 0L39.6532 19.4242L48.4153 38.8601H30.8795H13.3438L22.1174 19.4242L30.8795 0Z" fill="#1C75BC"/>
<path opacity="0.75" d="M24.2155 5.53809L32.9892 22.1991L41.7513 38.8601H24.2155H6.67969L15.4534 22.1991L24.2155 5.53809Z" fill="#6DCFF6"/>
<path d="M53.6188 5.56152H52.5859V17.9086H53.6188V5.56152Z" fill="#231F20"/>
<path d="M63.325 12.1256C65.1586 11.8575 66.2611 10.6449 66.2611 8.86107C66.2611 6.82072 64.8104 5.56152 62.4662 5.56152H57V17.9086H58.0329V12.2189H62.1528L66.0754 17.8736L66.0986 17.9086H67.3056L63.325 12.1256ZM58.0329 6.52924H62.3965C64.1954 6.52924 65.2166 7.39202 65.2166 8.88439C65.2166 10.3768 64.2186 11.2512 62.3965 11.2512H58.0329V6.52924Z" fill="#231F20"/>
<path d="M74.8308 5.35156C71.3376 5.35156 68.7031 8.09147 68.7031 11.7408C68.7031 15.3901 71.3376 18.13 74.8308 18.13C78.324 18.13 80.9468 15.3901 80.9468 11.7408C80.9468 8.09147 78.324 5.35156 74.8308 5.35156ZM74.8308 17.1273C71.941 17.1273 69.7476 14.8072 69.7476 11.7291C69.7476 8.65111 71.9294 6.35425 74.8308 6.35425C77.7321 6.35425 79.8907 8.66277 79.8907 11.7291C79.8907 14.7955 77.7205 17.1273 74.8308 17.1273Z" fill="#231F20"/>
<path d="M92.6393 16.0548L84.6083 5.58484L84.5851 5.56152H83.7031V17.9086H84.736V7.39202L92.7786 17.8736L92.8018 17.9086H93.6722V5.56152H92.6393V16.0548Z" fill="#231F20"/>
<path d="M58.0974 32.5411L53.5016 26.4666L53.4784 26.4316H52.4688V38.7904H53.5016V28.1106L57.7492 33.6953L57.7724 33.7303H58.4107L62.6583 28.1106V38.7904H63.6912V26.4316H62.7163L58.0974 32.5411Z" fill="#231F20"/>
<path d="M72.573 26.2344C69.0797 26.2344 66.4453 28.9743 66.4453 32.6236C66.4453 36.2729 69.0797 39.0128 72.573 39.0128C76.0662 39.0128 78.689 36.2729 78.689 32.6236C78.689 28.9743 76.0662 26.2344 72.573 26.2344ZM72.573 38.0102C69.6832 38.0102 67.4898 35.69 67.4898 32.612C67.4898 29.5339 69.6716 27.2371 72.573 27.2371C75.4743 27.2371 77.6329 29.5456 77.6329 32.612C77.6329 35.6783 75.4627 38.0102 72.573 38.0102Z" fill="#231F20"/>
<path d="M90.1127 33.4971C90.1127 36.3186 88.6505 38.0092 86.2133 38.0092C83.7762 38.0092 82.2907 36.3186 82.2907 33.4971V26.4316H81.2578V33.4971C81.2578 36.8899 83.1495 38.9886 86.2133 38.9886C89.2772 38.9886 91.1456 36.8783 91.1456 33.4971V26.4316H90.1127V33.4971Z" fill="#231F20"/>
<path d="M103.147 36.9366L95.1162 26.4666L95.093 26.4316H94.2109V38.7904H95.2438V28.2738L103.286 38.7554L103.31 38.7904H104.18V26.4316H103.147V36.9366Z" fill="#231F20"/>
<path d="M115.98 26.4316H106.289V27.411H110.618V38.7904H111.651V27.411H115.98V26.4316Z" fill="#231F20"/>
<path d="M121.515 26.374H120.61L115.097 38.6745L115.039 38.7911H116.13L117.72 35.2467H124.381L125.971 38.7911H127.062L121.538 26.4207L121.515 26.374ZM123.998 34.3023H118.114L121.062 27.7848L123.998 34.3023Z" fill="#231F20"/>
<path d="M130.181 26.4316H129.148V38.7787H130.181V26.4316Z" fill="#231F20"/>
<path d="M142.483 36.9366L134.464 26.4666L134.429 26.4316H133.547V38.7904H134.58V28.2738L142.622 38.7554L142.646 38.7904H143.516V26.4316H142.483V36.9366Z" fill="#231F20"/>
<path d="M147.72 25.707C146.467 25.707 145.445 26.733 145.445 27.9922C145.445 29.2514 146.467 30.2774 147.72 30.2774C148.973 30.2774 150.006 29.2514 150.006 27.9922C150.006 26.733 148.985 25.6953 147.732 25.6953L147.72 25.707ZM147.72 29.9626C146.629 29.9626 145.77 29.0998 145.77 27.9922C145.77 26.8845 146.629 26.0101 147.732 26.0101C148.834 26.0101 149.693 26.8845 149.693 27.9922C149.693 29.0998 148.811 29.9626 147.72 29.9626Z" fill="#231F20"/>
<path d="M148.751 27.4573C148.751 27.0259 148.437 26.7461 147.95 26.7461H146.836V29.1829H147.265V28.1802H147.811L148.519 29.1829H149.041L148.287 28.1102C148.577 28.0053 148.751 27.7721 148.751 27.4573ZM147.277 27.1542H147.95C148.124 27.1542 148.321 27.2125 148.321 27.469C148.321 27.6788 148.194 27.7838 147.95 27.7838H147.277V27.1542Z" fill="#231F20"/>
</svg>