<svg width="346" height="90" viewBox="0 0 346 90" fill="none" xmlns="http://www.w3.org/2000/svg">
<path opacity="0.75" d="M40.3948 23.7583L60.6055 56.4151L80.7896 89.0719H40.3948H0L20.2108 56.4151L40.3948 23.7583Z" fill="white"/>
<path opacity="0.75" d="M71.1331 0L91.3438 44.5223L111.528 89.0713H71.1331H30.7383L50.949 44.5223L71.1331 0Z" fill="white"/>
<path opacity="0.75" d="M55.7815 12.6948L75.9923 50.8835L96.1763 89.0722H55.7815H15.3867L35.5975 50.8835L55.7815 12.6948Z" fill="white"/>
<path d="M123.516 12.7498H121.137V41.0505H123.516V12.7498Z" fill="white"/>
<path d="M145.875 27.7954C150.099 27.1807 152.638 24.4014 152.638 20.3127C152.638 15.636 149.297 12.7498 143.896 12.7498H131.305V41.0505H133.684V28.0092H143.174L152.211 40.9704L152.264 41.0505H155.044L145.875 27.7954ZM133.684 14.9679H143.736C147.88 14.9679 150.232 16.9454 150.232 20.3661C150.232 23.7868 147.933 25.7911 143.736 25.7911H133.684V14.9679Z" fill="white"/>
<path d="M172.379 12.2676C164.332 12.2676 158.264 18.5477 158.264 26.9124C158.264 35.277 164.332 41.5572 172.379 41.5572C180.426 41.5572 186.468 35.277 186.468 26.9124C186.468 18.5477 180.426 12.2676 172.379 12.2676ZM172.379 39.2589C165.722 39.2589 160.67 33.9408 160.67 26.8856C160.67 19.8305 165.696 14.5658 172.379 14.5658C179.063 14.5658 184.035 19.8572 184.035 26.8856C184.035 33.9141 179.036 39.2589 172.379 39.2589Z" fill="white"/>
<path d="M213.401 36.8014L194.902 12.8032L194.848 12.7498H192.816V41.0505H195.196V16.9454L213.722 40.9704L213.776 41.0505H215.781V12.7498H213.401V36.8014Z" fill="white"/>
<path d="M133.831 74.5876L123.245 60.6644L123.191 60.5842H120.865V88.9117H123.245V64.4325L133.029 77.2333L133.083 77.3135H134.553L144.338 64.4325V88.9117H146.717V60.5842H144.471L133.831 74.5876Z" fill="white"/>
<path d="M167.176 60.1338C159.129 60.1338 153.061 66.4139 153.061 74.7786C153.061 83.1432 159.129 89.4234 167.176 89.4234C175.223 89.4234 181.265 83.1432 181.265 74.7786C181.265 66.4139 175.223 60.1338 167.176 60.1338ZM167.176 87.1251C160.519 87.1251 155.467 81.807 155.467 74.7518C155.467 67.6967 160.493 62.4321 167.176 62.4321C173.859 62.4321 178.832 67.7234 178.832 74.7518C178.832 81.7803 173.833 87.1251 167.176 87.1251Z" fill="white"/>
<path d="M207.581 76.779C207.581 83.2462 204.213 87.1212 198.599 87.1212C192.985 87.1212 189.563 83.2462 189.563 76.779V60.5842H187.184V76.779C187.184 84.5557 191.541 89.366 198.599 89.366C205.657 89.366 209.961 84.529 209.961 76.779V60.5842H207.581V76.779Z" fill="white"/>
<path d="M237.608 84.6626L219.109 60.6644L219.055 60.5842H217.023V88.9117H219.403V64.8066L237.929 88.8316L237.983 88.9117H239.988V60.5842H237.608V84.6626Z" fill="white"/>
<path d="M267.166 60.5842H244.844V62.8291H254.815V88.9117H257.195V62.8291H267.166V60.5842Z" fill="white"/>
<path d="M279.917 60.4507H277.832L265.134 88.6446L265 88.9118H267.513L271.176 80.7877H286.521L290.183 88.9118H292.696L279.971 60.5576L279.917 60.4507ZM285.638 78.623H272.084L278.875 63.6843L285.638 78.623Z" fill="white"/>
<path d="M299.881 60.5842H297.502V88.885H299.881V60.5842Z" fill="white"/>
<path d="M328.22 84.6626L309.747 60.6644L309.667 60.5842H307.635V88.9117H310.014V64.8066L328.541 88.8316L328.594 88.9117H330.599V60.5842H328.22V84.6626Z" fill="white"/>
<path d="M340.283 58.9247C337.396 58.9247 335.043 61.2764 335.043 64.1626C335.043 67.0488 337.396 69.4005 340.283 69.4005C343.17 69.4005 345.549 67.0488 345.549 64.1626C345.549 61.2764 343.197 58.8979 340.31 58.8979L340.283 58.9247ZM340.283 68.679C337.77 68.679 335.792 66.7014 335.792 64.1626C335.792 61.6238 337.77 59.6195 340.31 59.6195C342.849 59.6195 344.828 61.6238 344.828 64.1626C344.828 66.7014 342.796 68.679 340.283 68.679Z" fill="white"/>
<path d="M342.657 62.9353C342.657 61.9465 341.935 61.3052 340.813 61.3052H338.246V66.8905H339.235V64.5922H340.492L342.122 66.8905H343.326L341.588 64.4319C342.256 64.1914 342.657 63.6569 342.657 62.9353ZM339.262 62.2405H340.813C341.214 62.2405 341.668 62.3741 341.668 62.9621C341.668 63.4431 341.374 63.6836 340.813 63.6836H339.262V62.2405Z" fill="white"/>
</svg>
