<svg width="150" height="38" viewBox="0 0 150 38" fill="none" xmlns="http://www.w3.org/2000/svg">
<path opacity="0.75" d="M17.5358 10.0986L26.3095 23.9808L35.0716 37.8631H17.5358H0L8.77369 23.9808L17.5358 10.0986Z" fill="white"/>
<path opacity="0.75" d="M30.8795 0L39.6532 18.9262L48.4153 37.8637H30.8795H13.3438L22.1174 18.9262L30.8795 0Z" fill="white"/>
<path opacity="0.75" d="M24.2155 5.39551L32.9892 21.6293L41.7513 37.8631H24.2155H6.67969L15.4534 21.6293L24.2155 5.39551Z" fill="white"/>
<path d="M53.6188 5.41797H52.5859V17.4485H53.6188V5.41797Z" fill="white"/>
<path d="M63.325 11.8138C65.1586 11.5525 66.2611 10.371 66.2611 8.63292C66.2611 6.64487 64.8104 5.41797 62.4662 5.41797H57V17.4485H58.0329V11.9047H62.1528L66.0754 17.4144L66.0986 17.4485H67.3056L63.325 11.8138ZM58.0329 6.36087H62.3965C64.1954 6.36087 65.2166 7.20153 65.2166 8.65564C65.2166 10.1097 64.2186 10.9618 62.3965 10.9618H58.0329V6.36087Z" fill="white"/>
<path d="M74.8308 5.21387C71.3376 5.21387 68.7031 7.88352 68.7031 11.4393C68.7031 14.995 71.3376 17.6647 74.8308 17.6647C78.324 17.6647 80.9468 14.995 80.9468 11.4393C80.9468 7.88352 78.324 5.21387 74.8308 5.21387ZM74.8308 16.6877C71.941 16.6877 69.7476 14.427 69.7476 11.4279C69.7476 8.42882 71.9294 6.19085 74.8308 6.19085C77.7321 6.19085 79.8907 8.44018 79.8907 11.4279C79.8907 14.4157 77.7205 16.6877 74.8308 16.6877Z" fill="white"/>
<path d="M92.6393 15.6422L84.6083 5.44069L84.5851 5.41797H83.7031V17.4485H84.736V7.20153L92.7786 17.4144L92.8018 17.4485H93.6722V5.41797H92.6393V15.6422Z" fill="white"/>
<path d="M58.0974 31.7067L53.5016 25.788L53.4784 25.7539H52.4688V37.7958H53.5016V27.3898L57.7492 32.8313L57.7724 32.8654H58.4107L62.6583 27.3898V37.7958H63.6912V25.7539H62.7163L58.0974 31.7067Z" fill="white"/>
<path d="M72.573 25.5615C69.0797 25.5615 66.4453 28.2312 66.4453 31.7869C66.4453 35.3427 69.0797 38.0123 72.573 38.0123C76.0662 38.0123 78.689 35.3427 78.689 31.7869C78.689 28.2312 76.0662 25.5615 72.573 25.5615ZM72.573 37.0354C69.6832 37.0354 67.4898 34.7747 67.4898 31.7756C67.4898 28.7765 69.6716 26.5385 72.573 26.5385C75.4743 26.5385 77.6329 28.7878 77.6329 31.7756C77.6329 34.7633 75.4627 37.0354 72.573 37.0354Z" fill="white"/>
<path d="M90.1127 32.6382C90.1127 35.3874 88.6505 37.0346 86.2133 37.0346C83.7762 37.0346 82.2907 35.3874 82.2907 32.6382V25.7539H81.2578V32.6382C81.2578 35.944 83.1495 37.9889 86.2133 37.9889C89.2772 37.9889 91.1456 35.9327 91.1456 32.6382V25.7539H90.1127V32.6382Z" fill="white"/>
<path d="M103.147 35.9895L95.1162 25.788L95.093 25.7539H94.2109V37.7958H95.2438V27.5488L103.286 37.7617L103.31 37.7958H104.18V25.7539H103.147V35.9895Z" fill="white"/>
<path d="M115.98 25.7539H106.289V26.7082H110.618V37.7958H111.651V26.7082H115.98V25.7539Z" fill="white"/>
<path d="M121.515 25.6973H120.61L115.097 37.6823L115.039 37.7959H116.13L117.72 34.3424H124.381L125.971 37.7959H127.062L121.538 25.7427L121.515 25.6973ZM123.998 33.4222H118.114L121.062 27.0719L123.998 33.4222Z" fill="white"/>
<path d="M130.181 25.7539H129.148V37.7844H130.181V25.7539Z" fill="white"/>
<path d="M142.483 35.9895L134.464 25.788L134.429 25.7539H133.547V37.7958H134.58V27.5488L142.622 37.7617L142.646 37.7958H143.516V25.7539H142.483V35.9895Z" fill="white"/>
<path d="M147.72 25.0475C146.467 25.0475 145.445 26.0472 145.445 27.2741C145.445 28.501 146.467 29.5007 147.72 29.5007C148.973 29.5007 150.006 28.501 150.006 27.2741C150.006 26.0472 148.985 25.0361 147.732 25.0361L147.72 25.0475ZM147.72 29.194C146.629 29.194 145.77 28.3533 145.77 27.2741C145.77 26.1949 146.629 25.3429 147.732 25.3429C148.834 25.3429 149.693 26.1949 149.693 27.2741C149.693 28.3533 148.811 29.194 147.72 29.194Z" fill="white"/>
<path d="M148.751 26.7535C148.751 26.3332 148.437 26.0605 147.95 26.0605H146.836V28.4348H147.265V27.4579H147.811L148.519 28.4348H149.041L148.287 27.3897C148.577 27.2875 148.751 27.0602 148.751 26.7535ZM147.277 26.4582H147.95C148.124 26.4582 148.321 26.515 148.321 26.7649C148.321 26.9694 148.194 27.0716 147.95 27.0716H147.277V26.4582Z" fill="white"/>
</svg>
