<svg
              xmlns="http://www.w3.org/2000/svg"
              width="31"
              height="43"
              viewBox="0 0 31 43"
              fill="none"
            >
              <path
                d="M10.5416 40.8012H20.3025M11.5177 17.3752H19.3264M15.422 17.3752L15.422 29.0882M21.2786 27.7732C25.8953 25.58 29.0872 20.8743 29.0872 15.423C29.0872 7.87593 22.9691 1.75781 15.422 1.75781C7.87495 1.75781 1.75684 7.87593 1.75684 15.423C1.75684 20.8743 4.94874 25.58 9.56552 27.7732V29.0882C9.56552 30.9074 9.56552 31.817 9.86272 32.5345C10.259 33.4912 11.0191 34.2513 11.9757 34.6475C12.6932 34.9447 13.6028 34.9447 15.422 34.9447C17.2412 34.9447 18.1508 34.9447 18.8683 34.6475C19.825 34.2513 20.5851 33.4912 20.9814 32.5345C21.2786 31.817 21.2786 30.9074 21.2786 29.0882V27.7732Z"
                stroke="#6DCFF6"
                strokeWidth="3.51391"
                strokeLinecap="round"
                strokeLinejoin="round"
              />
            </svg>