<svg width="1024" height="527" viewBox="0 0 1024 527" fill="none" xmlns="http://www.w3.org/2000/svg">
<path d="M-519.983 96.4772C-501.549 107.929 -507.565 91.4395 -495.405 98.5348C-490.182 101.586 -492.098 95.4082 -478.418 100.469C-464.738 105.531 -463.409 108.27 -454.51 108.194C-438.311 108.061 -435.167 119.381 -426.989 117.517C-418.811 115.653 -408.052 112.063 -387.887 108.378C-359.863 103.256 -358.712 99.7221 -346.596 100.474C-339.564 100.905 -341.882 107.57 -338.335 107.021C-334.788 106.472 -336.296 104.036 -330.012 107.139C-317.594 113.288 -321.242 109.703 -309.545 113.288C-289.084 119.527 -284.721 124.996 -271.891 124.381C-250.195 123.34 -252.792 119.759 -238.872 119.65C-224.952 119.542 -225.639 129.111 -208.993 126.698C-200.234 125.421 -193.878 118.794 -186.454 113.709C-179.751 109.126 -171.931 106.614 -162.926 99.1261C-149.822 88.2466 -150.168 88.3791 -142.566 83.1144C-134.963 77.8497 -126.713 68.2 -119.943 68.2C-112.206 68.2 -101.559 86.5674 -66.3962 86.5674C-38.6622 86.5674 -21.3571 67.2398 -17.6089 64.7565C-9.26355 59.2221 -8.52063 59.9884 -0.0356445 53.508C12.5717 43.8868 10.3095 54.3737 32.8151 44.3362C62.8226 30.9544 69.062 22.0475 81.284 22.9888C87.1436 23.4381 86.613 19.3796 92.8245 18.0268C99.036 16.674 101.349 11.712 105.432 11.712C109.515 11.712 112.358 17.7241 116.442 15.7705C120.525 13.8169 126.027 13.6656 132.417 11.1112C138.808 8.55693 142.539 9.75841 145.203 6.14926C147.868 2.54012 149.767 0 153.191 0C155.146 0 160.492 7.17572 166.156 11.1254C169.173 13.2304 170.77 13.6797 173.256 18.7931C175.742 23.9064 177.646 20.2122 179.317 23.5942C180.529 26.0587 181.808 28.4805 184.774 26.1627C189.382 22.5678 189.382 26.4702 192.779 26.0587C196.175 25.6472 197.147 25.7512 202.358 26.0587C207.57 26.3661 209.62 23.1827 211.698 24.5214C213.776 25.86 211.458 27.7048 219.703 28.3055C227.948 28.9063 232.316 29.7246 239.711 29.5354C247.107 29.3462 251.285 27.3311 261.027 31.9005C270.769 36.4699 270.641 39.4972 274.869 38.8491C276.489 38.5984 277.21 37.5578 278.003 37.1557C279.276 36.503 280.349 36.5503 281.555 36.0394C282.326 35.713 283.846 31.7822 284.739 35.6988C285.633 39.6154 285.857 41.1433 287.583 40.0695C293.431 36.3752 294.33 36.7584 298.721 33.3006C303.547 29.4786 309.613 24.9944 314.831 30.3348C320.048 35.6752 321.947 37.3166 326.639 42.3069C331.331 47.2973 332.678 50.6415 335.929 50.5942C348.218 50.4287 342.632 59.3546 350.111 59.9837C360.099 60.8304 356.502 57.4483 360.998 57.5334C366.327 57.6328 368.489 54.4021 374.404 54.5723C380.32 54.7426 384.688 53.1769 386.09 50.6794C388.984 45.5235 400.055 47.2121 406.462 46.1999C412.869 45.1876 426.219 36.8057 438.726 41.0392C447.714 44.0855 450.384 43.8773 455.003 49.6671C457.701 53.0492 457.5 55.3434 459.897 56.0103C462.293 56.6773 459.897 59.0991 463.991 61.6866C468.287 64.3922 468.588 62.784 472.286 66.5066C475.984 70.2293 476.755 71.7477 480.972 72.935C485.19 74.1223 484.368 78.6112 488.564 80.1249C492.759 81.6385 495.557 82.2393 497.853 85.7065C500.149 89.1738 511.639 96.8272 535.139 97.7402C558.639 98.6531 551.673 97.2671 557.069 94.8358C562.465 92.4045 565.85 90.6401 572.022 89.0933C578.195 87.5466 577.268 85.3565 586.283 84.1597C591.869 83.4266 592.713 82.2677 600.539 84.822C608.364 87.3763 613.297 89.0792 618.363 90.7868C624.971 92.9958 625.323 91.5247 629.842 93.5114C634.361 95.498 640.455 96.0136 641.668 94.2493C642.88 92.4849 642.785 91.378 645.231 91.8842C647.678 92.3903 646.907 91.0753 653.755 90.6307C660.604 90.186 658.967 87.4662 665.145 85.4795C671.323 83.4928 674.407 81.7615 681.987 81.6622C692.399 81.5345 696.359 81.6622 700.42 80.6121C712.413 77.4476 720.446 78.8856 726.333 79.8411C732.221 80.7966 733.684 82.1447 740.248 80.8959C746.811 79.6471 750.911 79.9735 758.681 81.9507C762.077 82.8116 766.055 81.5108 768.3 85.4984C769.417 87.5087 778.913 85.4984 788.555 89.5191C792.096 91.0044 799.983 90.6685 808.468 90.6685C816.953 90.6685 825.226 88.3696 827.365 92.2058C829.505 96.042 833.247 96.709 841.28 97.2813C849.312 97.8537 855.083 100.73 859.948 97.3759C864.813 94.0222 866.204 88.7149 875.225 89.1359C883.37 89.5191 888.687 95.4602 894.005 99.1971C899.323 102.934 908.244 109.391 922.119 108.43L922.119 777.715H-519.983V96.4772Z" fill="url(#paint0_linear_3493_2860)"/>
<path d="M1237.16 120.625C1237.16 71.7998 1237.09 74.6533 1237.09 23.2894C1131.37 23.2894 928.783 22.9414 919.022 22.9414C905.595 27.239 907.918 28.859 892.992 28.859C877.807 28.859 863.105 50.9745 843.417 48.7197C823.73 46.4649 816.208 47.3472 804.874 44.5042C783.849 39.2392 769.33 43.7545 764.827 43.9275C760.324 44.1005 753.691 41.9495 745.133 44.2274C737.79 46.1823 732.34 45.202 728.617 46.6322C722.778 48.8927 721.94 43.9275 718.435 45.8825C714.929 47.8374 709.429 51.4474 704.919 52.2259C700.41 53.0044 694.244 55.2304 686.735 58.5693C679.226 61.9083 674.582 62.7848 671.55 61.1298C668.518 59.4747 667.565 59.8669 658.035 62.6349C648.184 65.5183 648.843 69.3936 644.014 69.705C641.68 69.8549 640.509 67.6001 636.671 67.9C632.833 68.1998 633.671 60.4032 628.829 60.4032C622.158 60.4032 623.156 52.9064 618.154 54.0597C613.152 55.2131 606.302 56.7644 601.3 58.5693C596.298 60.3743 588.45 62.3293 586.78 64.29C585.111 66.2507 579.438 65.1896 572.932 65.1896C566.428 65.1896 554.742 65.1896 550.405 67.75C546.068 70.3105 541.559 72.8652 532.719 74.6702C523.88 76.4751 516.031 77.3748 510.025 79.4796C504.019 81.5845 502.849 80.385 494.342 83.5452C485.835 86.7054 483.468 82.6398 472.313 88.8102C461.158 94.9807 452.337 117.742 442.27 120.625C401.391 132.205 372.733 114.629 354.715 116.134C336.697 117.639 334.482 130.538 322.63 133.047C297.087 142.721 282.354 141.454 263.332 149.124C244.309 156.794 244.958 171.465 228.115 176.337C215.431 184.918 193.185 178.837 175.985 187.891C162.304 195.111 147.931 207.635 129.145 216.913C116.96 222.934 131.024 227.423 87.3162 227.423C70.6821 227.423 66.2219 241.792 50.0808 251.226C-11.4341 287.176 -34.1932 267.632 -57.9233 276.997C-101.157 301.908 -144.829 903.764 -175.141 918.262L1237.16 903.213L1237.16 120.625Z" fill="url(#paint1_linear_3493_2860)"/>
<path d="M1226.14 379.001C1225.87 379.502 1224.61 380.203 1221.77 379.001C1211.8 377.225 1210.71 377.225 1207.43 377.225H1201.42H1197.6H1195.14C1190.81 376.77 1181.83 375.805 1180.52 375.586C1178.88 375.313 1184.62 373.947 1176.15 375.586C1167.68 377.225 1167.55 377.362 1160.58 379.001C1153.61 380.64 1149.52 379.001 1146.79 379.001H1140.78H1132.17C1129.44 379.001 1131.35 379.547 1123.97 380.367C1116.6 381.186 1112.64 379.001 1110.04 379.001C1107.45 379.001 1107.45 377.635 1104.17 380.367C1100.89 383.098 1105.81 381.186 1098.71 384.191C1073.98 392.113 1075.35 393.206 1069.89 392.386C1065.52 391.731 1061.87 390.11 1060.6 389.381C1061.55 390.201 1061.91 391.348 1055.68 389.381C1032.6 389.381 1031.91 389.108 1029.59 390.747C1029.33 390.936 1029.18 391.041 1029.12 391.087C1029.48 390.814 1032.15 388.745 1025.09 392.386C1016.07 397.03 1017.16 396.211 1013.61 397.577H997.358C989.709 399.762 988.07 401.401 986.431 399.489C984.792 397.577 983.426 397.577 982.333 397.577C981.241 397.577 982.88 397.577 980.285 397.03C977.689 396.484 978.509 396.211 976.05 395.801C973.592 395.391 972.362 394.298 970.86 393.752C969.358 393.206 969.084 393.479 967.309 392.386C965.533 391.294 964.987 391.43 963.211 390.747C961.435 390.064 962.118 389.928 960.343 389.381C958.567 388.835 956.655 386.65 956.109 386.786C955.562 386.923 952.83 386.786 951.465 386.786C950.099 386.786 947.094 387.196 946.274 386.786C945.455 386.376 946.957 385.42 944.089 386.103C941.22 386.786 940.401 386.923 938.762 387.333C937.123 387.742 937.669 387.742 934.118 388.562L933.528 388.698C930.498 389.398 929.909 389.534 928.108 389.791C926.196 390.064 926.332 388.835 924.284 389.791C922.235 390.747 919.913 390.201 917.454 390.747C914.996 391.294 917.727 390.747 914.039 390.747C910.352 390.747 910.761 389.791 907.62 389.791H901.064H896.556C894.371 389.791 890.546 389.381 888.771 389.381H885.766C883.444 389.381 846.702 388.015 845.746 388.425C844.789 388.835 846.838 388.972 841.511 389.381C836.184 389.791 837.277 388.972 832.633 389.381C827.989 389.791 828.809 388.835 825.94 389.791C823.072 390.747 824.848 389.928 821.023 390.747C817.199 391.567 816.789 391.84 813.784 392.113C810.779 392.386 811.872 391.43 809.277 392.113C806.681 392.796 808.321 392.25 805.999 392.933C803.677 393.616 794.115 395.391 792.476 395.391C790.837 395.391 784.145 395.801 783.188 396.347C782.232 396.894 782.505 397.986 781.276 398.533C778.818 399.625 766.388 400.718 763.52 401.674C760.651 402.63 760.105 403.177 757.1 402.63C754.095 402.084 755.598 400.718 753.276 401.674C750.954 402.63 749.178 403.586 747.402 403.586H741.939C739.071 403.586 739.207 404.543 737.568 403.586C735.929 402.63 738.114 402.084 735.109 402.63C731.012 402.63 728.963 401.811 727.87 401.128C726.778 400.445 727.324 400.172 725.139 399.352C722.953 398.533 720.495 397.303 719.265 396.347C718.036 395.391 718.309 395.118 717.08 394.708C715.851 394.298 715.577 394.298 713.665 393.342C711.753 392.386 712.436 392.386 709.841 391.157C707.765 390.174 705.333 388.471 704.377 387.742C701.691 386.331 696.127 383.262 695.362 382.279C694.406 381.049 694.406 380.367 692.904 378.864C691.401 377.362 690.445 376.679 689.762 375.586C689.079 374.493 688.943 373.947 688.396 373.401C687.85 372.854 688.123 372.854 686.621 370.669C685.118 368.483 684.845 368.62 684.435 366.981C684.026 365.342 684.572 365.342 683.206 363.566C681.84 361.791 680.338 360.561 679.928 360.288C679.518 360.015 676.786 358.512 675.967 358.376C675.147 358.239 670.64 357.83 668.728 357.01C666.816 356.19 666.269 355.917 665.45 355.508C664.63 355.098 664.903 355.371 663.811 354.688C662.718 354.005 663.128 354.825 661.625 353.322C660.123 351.82 659.85 351.683 659.303 350.317C658.757 348.951 658.757 349.498 657.937 346.629C657.118 343.761 657.528 343.488 657.118 342.668C656.708 341.849 655.07 340.211 654.66 339.8L654.659 339.8C654.25 339.39 651.654 338.161 650.835 337.205C650.015 336.249 650.288 335.019 647.966 334.336C645.644 333.653 644.825 333.517 643.049 332.971C641.274 332.424 642.776 332.697 638.405 331.878C634.034 331.058 633.898 330.922 631.166 330.375C628.434 329.829 627.615 329.146 626.249 329.01C624.883 328.873 624.61 330.239 620.512 331.058C613.956 331.878 614.093 331.468 609.858 331.878C605.624 332.288 606.171 331.058 602.893 332.424C599.614 333.79 598.112 334.337 597.019 334.883C595.927 335.429 593.468 335.293 592.375 335.293C591.283 335.293 588.961 334.883 588.141 334.883C587.322 334.883 584.726 334.746 583.634 334.336C582.759 334.009 579.536 333.745 578.034 333.654C576.713 334.154 573.717 335.293 572.297 335.839C570.521 336.522 571.477 337.205 567.243 337.751C563.009 338.298 565.741 338.161 560.277 338.161C552.218 339.8 555.496 338.98 550.989 339.8C546.482 340.62 543.887 340.756 542.521 341.166C541.155 341.576 541.701 341.985 538.969 342.668C536.238 343.351 536.374 343.488 534.872 343.761C533.369 344.034 529.818 341.576 525.447 341.166C521.076 340.756 518.891 339.8 513.701 339.8C508.51 339.8 506.461 339.937 503.32 338.844C500.178 337.751 501.408 337.751 497.037 337.205C492.666 336.659 495.671 336.795 488.705 336.522C481.739 336.249 482.968 336.932 479.827 336.522C476.685 336.112 471.085 336.112 469.719 336.112C468.354 336.112 465.075 336.522 462.207 337.205C459.339 337.888 465.622 339.254 456.334 338.844C447.046 338.434 449.231 337.751 444.177 338.844C439.124 339.937 441.036 340.62 436.119 341.712C431.202 342.805 435.572 342.259 428.607 343.078C421.641 343.898 424.236 343.078 420.821 344.034C417.406 344.99 421.777 342.395 415.084 346.356C408.391 350.317 407.845 351.273 405.386 351.956C402.928 352.639 404.567 352.366 402.108 352.776C399.65 353.186 398.694 353.869 398.147 354.005C397.601 354.142 398.011 352.23 390.362 354.552C382.713 356.874 382.986 357.556 377.796 358.922C372.605 360.288 370.785 360.255 368.736 360.528C366.688 360.801 363.462 361.381 360.593 362.474C357.725 363.566 358.994 361.124 355.443 363.173C351.892 365.222 345.178 364.217 343.402 364.217C341.627 364.217 338.461 365.818 331.779 370.669C324.677 370.669 329.884 367.391 314.449 370.669C299.015 373.947 302.826 373.401 291.899 373.401C280.972 373.401 280.12 377.498 271.924 377.498C263.729 377.498 260.33 375.586 251.179 375.586C242.028 375.586 242.71 376.406 232.876 377.498C217.442 381.049 219.491 387.742 209.656 387.742H195.644C181.166 391.157 174.644 400.643 168.361 402.009C152.654 403.375 143.921 400.507 139.687 402.009C112.915 413.619 117.321 410.495 112.404 410.222C107.487 409.949 102.422 415.06 97.2313 417.928C82.8895 427.08 84.8976 422.845 76.8389 423.665H52.2704C43.119 429.402 37.4189 423.665 34.2775 423.665C24.8529 423.665 23.4872 425.031 18.8433 426.397C14.1992 427.763 23.0773 424.621 10.7844 426.397C-1.50854 428.172 -4.78674 426.806 -11.0697 428.172C-17.3528 429.538 -12.7086 425.304 -20.4941 430.221C-28.2797 435.138 -24.3187 436.231 -31.0115 436.231H-41.9385C-57.3729 438.416 -47.9484 438.963 -65.1584 441.831C-82.3685 444.699 -78.271 444.153 -85.2369 445.109C-100.262 445.109 -97.3931 440.192 -104.496 445.109C-120.777 452.103 -133.771 984.304 -136.002 985.488H1226.14V379.001Z" fill="url(#paint2_linear_3493_2860)"/>
<defs>
<linearGradient id="paint0_linear_3493_2860" x1="201.068" y1="0" x2="217.01" y2="388.837" gradientUnits="userSpaceOnUse">
<stop stop-color="#00A88E"/>
<stop offset="1" stop-color="white"/>
</linearGradient>
<linearGradient id="paint1_linear_3493_2860" x1="531.009" y1="22.9414" x2="531.009" y2="918.262" gradientUnits="userSpaceOnUse">
<stop stop-color="#00A88E"/>
<stop offset="1" stop-color="#1B75BC"/>
</linearGradient>
<linearGradient id="paint2_linear_3493_2860" x1="746" y1="289" x2="765.751" y2="782.567" gradientUnits="userSpaceOnUse">
<stop stop-color="#1E417A"/>
<stop offset="1" stop-color="#9AABC7"/>
</linearGradient>
</defs>
</svg>
