<svg width="733" height="396" viewBox="0 0 733 396" fill="none" xmlns="http://www.w3.org/2000/svg">
<g clip-path="url(#clip0_4928_22991)">
<path d="M-400.74 74.6191C-386.492 83.4763 -391.142 70.7228 -381.743 76.2105C-377.706 78.5703 -379.187 73.7923 -368.614 77.7069C-358.04 81.6215 -357.013 83.7398 -350.135 83.6812C-337.614 83.5788 -335.183 92.3336 -328.863 90.8922C-322.542 89.4507 -314.226 86.6739 -298.64 83.8239C-276.98 79.8617 -276.09 77.1288 -266.726 77.7105C-261.29 78.0434 -263.082 83.1983 -260.34 82.7739C-257.599 82.3495 -258.764 80.4654 -253.907 82.8654C-244.309 87.6214 -247.129 84.8483 -238.088 87.6214C-222.273 92.447 -218.901 96.6763 -208.984 96.2007C-192.215 95.3958 -194.222 92.6263 -183.463 92.5421C-172.704 92.458 -173.235 99.8592 -160.369 97.9933C-153.599 97.0055 -148.686 91.88 -142.948 87.9471C-137.767 84.4019 -131.722 82.4593 -124.763 76.6678C-114.634 68.2533 -114.901 68.3557 -109.025 64.2838C-103.149 60.2118 -96.7724 52.7485 -91.5396 52.7485C-85.5599 52.7485 -77.3308 66.9545 -50.1522 66.9545C-28.716 66.9545 -15.3404 52.0058 -12.4434 50.0851C-5.99305 45.8046 -5.4189 46.3973 1.13939 41.3851C10.8839 33.9437 9.13543 42.0546 26.5305 34.2913C49.724 23.9413 54.5466 17.0523 63.9933 17.7804C68.5223 18.1279 68.1121 14.9889 72.9132 13.9426C77.7142 12.8963 79.5016 9.05848 82.6577 9.05848C85.8138 9.05848 88.0113 13.7085 91.1674 12.1975C94.3235 10.6865 98.5762 10.5695 103.515 8.59385C108.455 6.61825 111.339 7.54752 113.398 4.75607C115.458 1.96462 116.926 0 119.572 0C121.083 0 125.215 5.54997 129.593 8.60483C131.924 10.2329 133.159 10.5804 135.08 14.5353C137.002 18.4901 138.474 15.6328 139.765 18.2487C140.702 20.1548 141.691 22.0279 143.983 20.2352C147.545 17.4548 147.545 20.4731 150.17 20.1548C152.795 19.8365 153.546 19.917 157.575 20.1548C161.603 20.3926 163.187 17.9304 164.793 18.9657C166.4 20.0011 164.608 21.4279 170.98 21.8926C177.353 22.3572 180.729 22.9901 186.446 22.8438C192.162 22.6974 195.391 21.1389 202.921 24.673C210.451 28.2072 210.351 30.5486 213.62 30.0474C214.872 29.8535 215.429 29.0486 216.042 28.7376C217.026 28.2328 217.855 28.2693 218.788 27.8742C219.384 27.6218 220.558 24.5816 221.249 27.6108C221.94 30.6401 222.112 31.8218 223.446 30.9913C227.967 28.134 228.662 28.4303 232.055 25.7559C235.786 22.7999 240.475 19.3316 244.507 23.4621C248.54 27.5925 250.007 28.862 253.634 32.7218C257.261 36.5815 258.301 39.1681 260.814 39.1315C270.313 39.0034 265.995 45.9071 271.776 46.3936C279.496 47.0485 276.715 44.4327 280.191 44.4985C284.31 44.5754 285.981 42.0766 290.553 42.2083C295.125 42.34 298.501 41.129 299.585 39.1973C301.822 35.2096 310.379 36.5156 315.331 35.7327C320.283 34.9498 330.602 28.4669 340.269 31.7413C347.216 34.0974 349.279 33.9364 352.85 38.4144C354.935 41.0303 354.78 42.8046 356.632 43.3205C358.484 43.8363 356.632 45.7095 359.797 47.7107C363.117 49.8034 363.35 48.5595 366.208 51.4387C369.066 54.318 369.662 55.4924 372.922 56.4107C376.181 57.3289 375.547 60.8009 378.789 61.9716C382.032 63.1423 384.195 63.6069 385.969 66.2886C387.744 68.9703 396.625 74.8898 414.788 75.5959C432.952 76.302 427.568 75.2301 431.739 73.3496C435.909 71.4691 438.526 70.1045 443.297 68.9081C448.067 67.7118 447.351 66.0179 454.319 65.0923C458.637 64.5252 459.289 63.6289 465.337 65.6045C471.386 67.5801 475.198 68.8972 479.114 70.2179C484.222 71.9264 484.494 70.7886 487.987 72.3252C491.48 73.8618 496.19 74.2605 497.127 72.8959C498.064 71.5313 497.99 70.6752 499.882 71.0667C501.773 71.4581 501.177 70.4411 506.47 70.0972C511.763 69.7533 510.498 67.6496 515.273 66.113C520.048 64.5765 522.432 63.2374 528.291 63.1606C536.338 63.0618 539.399 63.1606 542.538 62.3484C551.808 59.9009 558.016 61.0131 562.567 61.7521C567.118 62.4911 568.249 63.5338 573.322 62.5679C578.395 61.6021 581.564 61.8545 587.569 63.3838C590.195 64.0496 593.269 63.0435 595.004 66.1277C595.868 67.6825 603.207 66.1277 610.659 69.2374C613.397 70.3862 619.493 70.1264 626.051 70.1264C632.609 70.1264 639.004 68.3484 640.657 71.3154C642.311 74.2825 645.204 74.7983 651.412 75.241C657.621 75.6837 662.081 77.9081 665.841 75.3142C669.602 72.7203 670.677 68.6155 677.649 68.9411C683.944 69.2374 688.054 73.8325 692.165 76.7227C696.275 79.613 703.17 84.6068 713.895 83.8641L713.895 601.514H-400.74V74.6191Z" fill="url(#paint0_linear_4928_22991)"/>
<path d="M957.4 93.2967C957.4 55.533 957.347 57.7401 957.347 18.0133C875.633 18.0133 719.05 17.7441 711.506 17.7441C701.127 21.0681 702.923 22.321 691.386 22.321C679.65 22.321 668.286 39.426 653.069 37.6821C637.852 35.9381 632.038 36.6205 623.277 34.4216C607.027 30.3494 595.805 33.8418 592.324 33.9756C588.844 34.1094 583.717 32.4457 577.102 34.2075C571.427 35.7196 567.215 34.9613 564.337 36.0675C559.824 37.8159 559.176 33.9756 556.467 35.4876C553.757 36.9996 549.506 39.7917 546.02 40.3939C542.535 40.996 537.769 42.7177 531.965 45.3001C526.161 47.8826 522.572 48.5606 520.228 47.2805C517.885 46.0004 517.148 46.3037 509.782 48.4446C502.169 50.6747 502.678 53.672 498.945 53.9128C497.141 54.0288 496.236 52.2848 493.27 52.5168C490.303 52.7487 490.951 46.7185 487.209 46.7185C482.052 46.7185 482.824 40.9202 478.957 41.8122C475.091 42.7043 469.797 43.9041 465.931 45.3001C462.064 46.6962 455.998 48.2082 454.708 49.7247C453.418 51.2412 449.033 50.4205 444.005 50.4205C438.977 50.4205 429.944 50.4205 426.593 52.4008C423.241 54.3812 419.755 56.357 412.923 57.7531C406.091 59.1491 400.024 59.8449 395.382 61.4729C390.74 63.1009 389.835 62.1732 383.26 64.6174C376.685 67.0616 374.855 63.9171 366.233 68.6896C357.611 73.462 350.794 91.0665 343.012 93.2967C311.416 102.253 289.266 88.6589 275.339 89.823C261.412 90.9871 259.701 100.964 250.54 102.904C230.797 110.386 219.41 109.406 204.707 115.339C190.004 121.271 190.505 132.618 177.487 136.386C167.683 143.023 150.489 138.319 137.195 145.322C126.62 150.906 115.511 160.593 100.991 167.769C91.5729 172.426 102.443 175.898 68.6603 175.898C55.8034 175.898 52.3561 187.012 39.8802 194.308C-7.66615 222.113 -25.2572 206.997 -43.5988 214.24C-77.0155 233.508 -110.77 699.006 -134.199 710.219L957.4 698.58L957.4 93.2967Z" fill="url(#paint1_linear_4928_22991)"/>
<path d="M949.781 293.133C949.57 293.521 948.598 294.063 946.401 293.133C938.689 291.76 937.844 291.76 935.308 291.76H930.66H927.702H925.801C922.455 291.408 915.511 290.661 914.497 290.492C913.229 290.281 917.666 289.225 911.116 290.492C904.566 291.76 904.461 291.866 899.073 293.133C893.685 294.401 890.516 293.133 888.403 293.133H883.755H877.1C874.987 293.133 876.466 293.556 870.761 294.19C865.056 294.824 861.993 293.133 859.985 293.133C857.978 293.133 857.978 292.077 855.443 294.19C852.907 296.303 856.711 294.824 851.217 297.148C832.096 303.275 833.152 304.12 828.927 303.486C825.546 302.979 822.729 301.726 821.743 301.162C822.483 301.796 822.757 302.683 817.94 301.162C800.086 301.162 799.558 300.951 797.762 302.219C797.556 302.364 797.443 302.446 797.394 302.481C797.676 302.27 799.744 300.67 794.276 303.486C787.304 307.078 788.149 306.444 785.402 307.501H772.831C766.915 309.191 765.647 310.459 764.379 308.98C763.112 307.501 762.055 307.501 761.21 307.501C760.365 307.501 761.633 307.501 759.625 307.078C757.618 306.656 758.252 306.444 756.351 306.127C754.449 305.81 753.498 304.965 752.336 304.543C751.174 304.12 750.963 304.331 749.589 303.486C748.216 302.641 747.794 302.747 746.42 302.219C745.047 301.69 745.575 301.585 744.202 301.162C742.828 300.74 741.349 299.049 740.927 299.155C740.504 299.261 738.391 299.155 737.335 299.155C736.279 299.155 733.954 299.472 733.321 299.155C732.687 298.838 733.849 298.098 731.63 298.627C729.412 299.155 728.778 299.261 727.51 299.577C726.243 299.894 726.665 299.894 723.918 300.528L723.462 300.634C721.119 301.175 720.663 301.28 719.27 301.479C717.791 301.69 717.897 300.74 716.312 301.479C714.728 302.219 712.932 301.796 711.03 302.219C709.129 302.641 711.241 302.219 708.389 302.219C705.537 302.219 705.854 301.479 703.424 301.479H698.353H694.867C693.177 301.479 690.219 301.162 688.845 301.162H686.521C684.725 301.162 656.307 300.106 655.568 300.423C654.828 300.74 656.413 300.845 652.293 301.162C648.173 301.479 649.018 300.845 645.426 301.162C641.834 301.479 642.468 300.74 640.25 301.479C638.031 302.219 639.405 301.585 636.447 302.219C633.489 302.852 633.172 303.064 630.848 303.275C628.524 303.486 629.369 302.747 627.362 303.275C625.354 303.803 626.622 303.381 624.826 303.909C623.03 304.437 615.635 305.81 614.368 305.81C613.1 305.81 607.923 306.127 607.184 306.55C606.444 306.972 606.656 307.818 605.705 308.24C603.803 309.085 594.19 309.93 591.971 310.67C589.753 311.409 589.33 311.832 587.006 311.409C584.682 310.987 585.844 309.93 584.048 310.67C582.252 311.409 580.879 312.149 579.506 312.149H575.28C573.061 312.149 573.167 312.888 571.899 312.149C570.632 311.409 572.322 310.987 569.998 311.409C566.829 311.409 565.244 310.776 564.399 310.247C563.554 309.719 563.976 309.508 562.286 308.874C560.596 308.24 558.694 307.289 557.743 306.55C556.793 305.81 557.004 305.599 556.053 305.282C555.102 304.965 554.891 304.965 553.412 304.226C551.933 303.486 552.461 303.486 550.454 302.535C548.848 301.775 546.968 300.458 546.228 299.894C544.151 298.803 539.848 296.429 539.256 295.669C538.516 294.718 538.516 294.19 537.354 293.028C536.192 291.866 535.453 291.337 534.925 290.492C534.396 289.647 534.291 289.225 533.868 288.802C533.446 288.379 533.657 288.379 532.495 286.689C531.333 284.999 531.122 285.105 530.805 283.837C530.488 282.569 530.91 282.569 529.854 281.196C528.797 279.822 527.635 278.872 527.318 278.66C527.002 278.449 524.889 277.287 524.255 277.181C523.621 277.076 520.135 276.759 518.656 276.125C517.177 275.491 516.754 275.28 516.12 274.963C515.487 274.646 515.698 274.857 514.853 274.329C514.008 273.801 514.324 274.435 513.162 273.273C512 272.111 511.789 272.005 511.366 270.948C510.944 269.892 510.944 270.315 510.31 268.096C509.676 265.878 509.993 265.666 509.676 265.033C509.359 264.399 508.092 263.131 507.775 262.814C507.458 262.497 505.45 261.546 504.817 260.807C504.183 260.067 504.394 259.117 502.598 258.588C500.802 258.06 500.168 257.954 498.795 257.532C497.422 257.109 498.584 257.321 495.203 256.687C491.823 256.053 491.717 255.947 489.604 255.525C487.491 255.102 486.858 254.574 485.801 254.468C484.745 254.363 484.533 255.419 481.364 256.053C476.293 256.687 476.399 256.37 473.124 256.687C469.849 257.004 470.272 256.053 467.736 257.109C465.201 258.166 464.039 258.588 463.194 259.011C462.348 259.434 460.447 259.328 459.602 259.328C458.757 259.328 456.961 259.011 456.327 259.011C455.693 259.011 453.686 258.905 452.841 258.588C452.165 258.335 449.671 258.131 448.509 258.06C447.488 258.448 445.171 259.328 444.072 259.75C442.699 260.279 443.439 260.807 440.164 261.229C436.889 261.652 439.002 261.546 434.776 261.546C428.543 262.814 431.078 262.18 427.592 262.814C424.106 263.448 422.099 263.554 421.042 263.871C419.986 264.187 420.409 264.504 418.296 265.033C416.183 265.561 416.289 265.666 415.126 265.878C413.964 266.089 411.218 264.187 407.837 263.871C404.457 263.554 402.766 262.814 398.752 262.814C394.738 262.814 393.153 262.92 390.723 262.075C388.293 261.229 389.244 261.229 385.864 260.807C382.483 260.384 384.807 260.49 379.419 260.279C374.032 260.067 374.982 260.596 372.553 260.279C370.123 259.962 365.792 259.962 364.735 259.962C363.679 259.962 361.143 260.279 358.925 260.807C356.706 261.335 361.566 262.392 354.382 262.075C347.199 261.758 348.889 261.229 344.98 262.075C341.071 262.92 342.55 263.448 338.747 264.293C334.944 265.138 338.325 264.716 332.937 265.35C327.549 265.983 329.556 265.35 326.915 266.089C324.274 266.828 327.655 264.821 322.478 267.885C317.302 270.949 316.879 271.688 314.978 272.216C313.076 272.744 314.344 272.533 312.442 272.85C310.541 273.167 309.801 273.695 309.379 273.801C308.956 273.907 309.273 272.428 303.357 274.223C297.441 276.019 297.652 276.548 293.638 277.604C289.624 278.66 288.216 278.635 286.631 278.846C285.046 279.057 282.551 279.506 280.333 280.351C278.114 281.196 279.096 279.307 276.349 280.892C273.603 282.476 268.41 281.699 267.037 281.699C265.664 281.699 263.215 282.937 258.047 286.689C252.554 286.689 256.581 284.154 244.643 286.689C232.706 289.225 235.654 288.802 227.202 288.802C218.751 288.802 218.092 291.971 211.753 291.971C205.415 291.971 202.786 290.492 195.708 290.492C188.63 290.492 189.158 291.126 181.552 291.971C169.614 294.718 171.199 299.894 163.593 299.894H152.755C141.557 302.535 136.513 309.873 131.653 310.929C119.505 311.985 112.75 309.767 109.475 310.929C88.7695 319.909 92.1771 317.492 88.374 317.281C84.5709 317.07 80.6533 321.023 76.6389 323.241C65.5465 330.319 67.0995 327.045 60.8666 327.678H41.8645C34.7864 332.115 30.3779 327.678 27.948 327.678C20.6587 327.678 19.6025 328.735 16.0106 329.791C12.4188 330.848 19.2854 328.418 9.77764 329.791C0.269825 331.165 -2.26564 330.108 -7.12513 331.165C-11.9847 332.221 -8.39277 328.946 -14.4144 332.749C-20.436 336.552 -17.3724 337.397 -22.5489 337.397H-31.0003C-42.9378 339.088 -35.6485 339.51 -48.9594 341.729C-62.2703 343.947 -59.1011 343.525 -64.4888 344.264C-76.1094 344.264 -73.8909 340.461 -79.3843 344.264C-91.9769 349.673 -102.027 761.297 -103.752 762.213H949.781V293.133Z" fill="url(#paint2_linear_4928_22991)"/>
</g>
<defs>
<linearGradient id="paint0_linear_4928_22991" x1="156.577" y1="0" x2="168.915" y2="300.741" gradientUnits="userSpaceOnUse">
<stop stop-color="#00A88E"/>
<stop offset="1" stop-color="white"/>
</linearGradient>
<linearGradient id="paint1_linear_4928_22991" x1="713" y1="725.874" x2="437.067" y2="4.88319" gradientUnits="userSpaceOnUse">
<stop stop-color="#92D4CA"/>
<stop offset="0.27" stop-color="#8FD3C8"/>
<stop offset="0.44" stop-color="#87D0C5"/>
<stop offset="0.57" stop-color="#78CCBF"/>
<stop offset="0.69" stop-color="#64C6B7"/>
<stop offset="0.8" stop-color="#4ABEAC"/>
<stop offset="0.9" stop-color="#2AB49F"/>
<stop offset="0.99" stop-color="#05A990"/>
<stop offset="1" stop-color="#00A88E"/>
</linearGradient>
<linearGradient id="paint2_linear_4928_22991" x1="375.395" y1="239.766" x2="353.002" y2="504.974" gradientUnits="userSpaceOnUse">
<stop stop-color="#1C75BC"/>
<stop offset="1" stop-color="#5DA9DD"/>
</linearGradient>
<clipPath id="clip0_4928_22991">
<rect width="792" height="395.227" fill="white" transform="translate(-29.4999)"/>
</clipPath>
</defs>
</svg>
