<svg width="171" height="171" viewBox="0 0 171 171" fill="none" xmlns="http://www.w3.org/2000/svg">
<path d="M78.375 28.5H55.575C43.6039 28.5 37.6183 28.5 33.046 30.8297C29.024 32.879 25.754 36.149 23.7047 40.171C21.375 44.7433 21.375 50.7289 21.375 62.7V115.425C21.375 127.396 21.375 133.382 23.7047 137.954C25.754 141.976 29.024 145.246 33.046 147.295C37.6183 149.625 43.6039 149.625 55.575 149.625H108.3C120.271 149.625 126.257 149.625 130.829 147.295C134.851 145.246 138.121 141.976 140.17 137.954C142.5 133.382 142.5 127.396 142.5 115.425V92.625M92.625 121.125H49.875M106.875 92.625H49.875M143.364 27.6356C151.712 35.983 151.712 49.517 143.364 57.8644C135.017 66.2119 121.483 66.2119 113.136 57.8644C104.788 49.517 104.788 35.983 113.136 27.6356C121.483 19.2881 135.017 19.2881 143.364 27.6356Z" stroke="#14477D" stroke-width="14" stroke-linecap="round" stroke-linejoin="round"/>
</svg>
