<svg width="208" height="187" viewBox="0 0 208 187" fill="none" xmlns="http://www.w3.org/2000/svg">
<g clip-path="url(#clip0_4296_25758)">
<path d="M199.437 148.107L220.06 126.589C221.312 125.283 221.312 123.165 220.06 121.858L199.437 100.34C198.185 99.0336 196.155 99.0336 194.903 100.34L174.28 121.858C173.028 123.165 173.028 125.283 174.28 126.589L194.903 148.107C196.155 149.414 198.185 149.414 199.437 148.107Z" fill="url(#paint0_linear_4296_25758)"/>
<path d="M68.5607 48.1641L2.98357 116.589C-0.995106 120.741 -0.9951 127.472 2.98358 131.623L68.5607 200.048C72.5394 204.2 78.9901 204.2 82.9688 200.048L148.546 131.623C152.525 127.472 152.525 120.741 148.546 116.589L82.9688 48.1641C78.9901 44.0127 72.5394 44.0126 68.5607 48.1641Z" stroke="#6DCFF6" stroke-width="0.627343" stroke-miterlimit="10"/>
<path d="M158.78 2.52729L112.441 50.878C109.629 53.8127 109.629 58.5707 112.441 61.5054L158.78 109.856C161.592 112.791 166.152 112.791 168.965 109.856L215.303 61.5054C218.115 58.5707 218.115 53.8127 215.303 50.878L168.965 2.52729C166.152 -0.407366 161.592 -0.407371 158.78 2.52729Z" stroke="#F79420" stroke-width="0.627343" stroke-miterlimit="10"/>
<path d="M158.615 138.179L112.277 186.53C109.465 189.464 109.465 194.222 112.277 197.157L158.615 245.508C161.428 248.442 165.988 248.442 168.8 245.508L215.139 197.157C217.951 194.222 217.951 189.464 215.139 186.53L168.8 138.179C165.988 135.244 161.428 135.244 158.615 138.179Z" stroke="#00A88E" stroke-width="0.627343" stroke-miterlimit="10"/>
</g>
<defs>
<linearGradient id="paint0_linear_4296_25758" x1="209.748" y1="137.346" x2="183.522" y2="112.212" gradientUnits="userSpaceOnUse">
<stop stop-color="#F7931E"/>
<stop offset="1" stop-color="#F4751F"/>
</linearGradient>
<clipPath id="clip0_4296_25758">
<rect width="221" height="248.036" fill="white" transform="matrix(-1 0 0 -1 221 248.036)"/>
</clipPath>
</defs>
</svg>
