<svg width="88" height="88" viewBox="0 0 88 88" fill="none" xmlns="http://www.w3.org/2000/svg">
<path d="M34.8333 32.8729C34.8333 31.1228 34.8333 30.2478 35.1991 29.7593C35.5178 29.3336 36.0056 29.0673 36.5361 29.0294C37.1447 28.9859 37.8808 29.4591 39.3529 30.4054L56.6617 41.5325C57.9392 42.3537 58.5779 42.7643 58.7985 43.2864C58.9912 43.7426 58.9912 44.2574 58.7985 44.7136C58.5779 45.2357 57.9392 45.6463 56.6617 46.4675L39.3529 57.5946C37.8808 58.5409 37.1447 59.0141 36.5361 58.9706C36.0056 58.9327 35.5178 58.6664 35.1991 58.2407C34.8333 57.7522 34.8333 56.8772 34.8333 55.1271V32.8729Z" stroke="#EDEDED" stroke-width="4" stroke-linecap="round" stroke-linejoin="round"/>
<path d="M11 28.6C11 22.4394 11 19.3591 12.1989 17.0061C13.2535 14.9363 14.9363 13.2535 17.0061 12.1989C19.3591 11 22.4394 11 28.6 11H59.4C65.5606 11 68.6409 11 70.9939 12.1989C73.0637 13.2535 74.7465 14.9363 75.8011 17.0061C77 19.3591 77 22.4394 77 28.6V59.4C77 65.5606 77 68.6409 75.8011 70.9939C74.7465 73.0637 73.0637 74.7465 70.9939 75.8011C68.6409 77 65.5606 77 59.4 77H28.6C22.4394 77 19.3591 77 17.0061 75.8011C14.9363 74.7465 13.2535 73.0637 12.1989 70.9939C11 68.6409 11 65.5606 11 59.4V28.6Z" stroke="#EDEDED" stroke-width="4" stroke-linecap="round" stroke-linejoin="round"/>
</svg>
