<svg width="703" height="183" viewBox="0 0 703 183" fill="none" xmlns="http://www.w3.org/2000/svg">
<g clip-path="url(#clip0_5168_9853)">
<path opacity="0.75" d="M82.1842 48.4004L123.303 114.922L164.368 181.444H82.1842H0.000244141L41.1194 114.922L82.1842 48.4004Z" fill="white"/>
<path opacity="0.75" d="M144.738 0L185.857 90.6914L226.922 181.437H144.738H62.5542L103.673 90.6914L144.738 0Z" fill="white"/>
<path opacity="0.75" d="M113.461 25.8691L154.58 103.659L195.645 181.449H113.461H31.2773L72.3965 103.659L113.461 25.8691Z" fill="white"/>
<path d="M251.289 25.9766H246.448V83.6249H251.289V25.9766Z" fill="white"/>
<path d="M296.768 56.6244C305.362 55.3723 310.529 49.7109 310.529 41.3821C310.529 31.8557 303.73 25.9766 292.743 25.9766H267.125V83.6249H271.966V57.0599H291.275L309.659 83.4616L309.767 83.6249H315.424L296.768 56.6244ZM271.966 30.4948H292.417C300.847 30.4948 305.634 34.5231 305.634 41.491C305.634 48.4589 300.956 52.5416 292.417 52.5416H271.966V30.4948Z" fill="white"/>
<path d="M350.72 24.9844C334.349 24.9844 322.002 37.777 322.002 54.8156C322.002 71.8543 334.349 84.6469 350.72 84.6469C367.092 84.6469 379.384 71.8543 379.384 54.8156C379.384 37.777 367.092 24.9844 350.72 24.9844ZM350.72 79.9654C337.177 79.9654 326.897 69.1325 326.897 54.7612C326.897 40.3899 337.123 29.6659 350.72 29.6659C364.318 29.6659 374.434 40.4444 374.434 54.7612C374.434 69.078 364.263 79.9654 350.72 79.9654Z" fill="white"/>
<path d="M434.16 74.9695L396.521 26.0854L396.413 25.9766H392.279V83.6249H397.12V34.5231L434.812 83.4616L434.921 83.6249H439V25.9766H434.16V74.9695Z" fill="white"/>
<path d="M272.289 151.94L250.75 123.578L250.642 123.415H245.91V181.118H250.75V131.254L270.657 157.329L270.766 157.492H273.758L293.664 131.254V181.118H298.505V123.415H293.936L272.289 151.94Z" fill="white"/>
<path d="M340.105 122.484C323.733 122.484 311.387 135.277 311.387 152.316C311.387 169.354 323.733 182.147 340.105 182.147C356.476 182.147 368.769 169.354 368.769 152.316C368.769 135.277 356.476 122.484 340.105 122.484ZM340.105 177.465C326.562 177.465 316.282 166.632 316.282 152.261C316.282 137.89 326.507 127.166 340.105 127.166C353.702 127.166 363.819 137.944 363.819 152.261C363.819 166.578 353.648 177.465 340.105 177.465Z" fill="white"/>
<path d="M422.302 156.404C422.302 169.577 415.449 177.471 404.027 177.471C392.605 177.471 385.643 169.577 385.643 156.404V123.415H380.802V156.404C380.802 172.245 389.668 182.043 404.027 182.043C418.386 182.043 427.143 172.19 427.143 156.404V123.415H422.302V156.404Z" fill="white"/>
<path d="M483.437 172.462L445.798 123.578L445.69 123.415H441.556V181.118H446.397V132.016L484.089 180.955L484.198 181.118H488.277V123.415H483.437V172.462Z" fill="white"/>
<path d="M543.541 123.415H498.125V127.988H518.413V181.118H523.254V127.988H543.541V123.415Z" fill="white"/>
<path d="M569.475 123.131H565.233L539.397 180.561L539.125 181.106H544.238L551.689 164.557H582.91L590.361 181.106H595.474L569.584 123.349L569.475 123.131ZM581.115 160.148H553.539L567.354 129.718L581.115 160.148Z" fill="white"/>
<path d="M610.104 123.415H605.264V181.063H610.104V123.415Z" fill="white"/>
<path d="M667.76 172.462L630.176 123.578L630.013 123.415H625.879V181.118H630.72V132.016L668.412 180.955L668.521 181.118H672.6V123.415H667.76V172.462Z" fill="white"/>
<path d="M692.293 120.031C686.419 120.031 681.633 124.821 681.633 130.701C681.633 136.58 686.419 141.37 692.293 141.37C698.167 141.37 703.008 136.58 703.008 130.701C703.008 124.821 698.222 119.977 692.348 119.977L692.293 120.031ZM692.293 139.9C687.181 139.9 683.156 135.872 683.156 130.701C683.156 125.529 687.181 121.446 692.348 121.446C697.515 121.446 701.54 125.529 701.54 130.701C701.54 135.872 697.406 139.9 692.293 139.9Z" fill="white"/>
<path d="M697.13 128.198C697.13 126.183 695.662 124.877 693.378 124.877H688.156V136.254H690.168V131.573H692.725L696.043 136.254H698.49L694.955 131.246C696.315 130.756 697.13 129.667 697.13 128.198ZM690.223 126.782H693.378C694.193 126.782 695.118 127.054 695.118 128.252C695.118 129.232 694.52 129.722 693.378 129.722H690.223V126.782Z" fill="white"/>
</g>
<defs>
<clipPath id="clip0_5168_9853">
<rect width="702.996" height="182.09" fill="white"/>
</clipPath>
</defs>
</svg>
